<?xml version="1.0" encoding="UTF-8"?>
<!DOCTYPE svg PUBLIC "-//W3C//DTD SVG 1.1//EN" "http://www.w3.org/Graphics/SVG/1.1/DTD/svg11.dtd">
<!-- Creator: CorelDRAW 2020 (64-Bit) -->
<svg xmlns="http://www.w3.org/2000/svg" xml:space="preserve" width="200px" height="45px" version="1.1" style="shape-rendering:geometricPrecision; text-rendering:geometricPrecision; image-rendering:optimizeQuality; fill-rule:evenodd; clip-rule:evenodd"
viewBox="0 0 200 45"
 xmlns:xlink="http://www.w3.org/1999/xlink"
 xmlns:xodm="http://www.corel.com/coreldraw/odm/2003">
 <defs>
  <style type="text/css">
   <![CDATA[
    .str0 {stroke:gray;stroke-width:0.83;stroke-miterlimit:22.9256}
    .fil4 {fill:#204051}
    .fil3 {fill:#3B6978}
    .fil2 {fill:#84A9AC}
    .fil5 {fill:#CAE8D5}
    .fil0 {fill:black;fill-rule:nonzero}
    .fil1 {fill:gray;fill-rule:nonzero}
   ]]>
  </style>
 </defs>
 <g id="Layer_x0020_1">
  <metadata id="CorelCorpID_0Corel-Layer"/>
  <g id="_1498280032">
   <path class="fil0" d="M84.59 9.84l0 2.08 -2.87 0 0 8.59 -2.63 0 0 -8.59 -2.87 0 0 -2.08 8.37 0zm6.61 2.1c0.99,0 1.78,0.32 2.37,0.96 0.6,0.64 0.9,1.53 0.9,2.65l0 4.96 -2.62 0 0 -4.61c0,-0.56 -0.15,-1.01 -0.45,-1.32 -0.3,-0.31 -0.7,-0.47 -1.2,-0.47 -0.5,0 -0.91,0.16 -1.2,0.47 -0.3,0.31 -0.45,0.76 -0.45,1.32l0 4.61 -2.63 0 0 -11.25 2.63 0 0 3.91c0.27,-0.38 0.63,-0.68 1.09,-0.9 0.47,-0.22 0.99,-0.33 1.56,-0.33zm6.43 -0.8c-0.47,0 -0.84,-0.13 -1.14,-0.4 -0.29,-0.27 -0.44,-0.6 -0.44,-0.99 0,-0.41 0.15,-0.75 0.44,-1.01 0.3,-0.27 0.67,-0.41 1.14,-0.41 0.45,0 0.82,0.14 1.11,0.41 0.3,0.26 0.44,0.6 0.44,1.01 0,0.39 -0.14,0.72 -0.44,0.99 -0.29,0.27 -0.66,0.4 -1.11,0.4zm1.31 0.89l0 8.48 -2.64 0 0 -8.48 2.64 0zm1.38 4.22c0,-0.87 0.17,-1.63 0.5,-2.29 0.34,-0.66 0.79,-1.17 1.37,-1.52 0.57,-0.36 1.21,-0.53 1.92,-0.53 0.61,0 1.14,0.12 1.6,0.36 0.45,0.24 0.81,0.56 1.05,0.96l0 -1.2 2.64 0 0 8.48 -2.64 0 0 -1.2c-0.25,0.39 -0.61,0.71 -1.07,0.96 -0.46,0.24 -0.99,0.36 -1.59,0.36 -0.7,0 -1.34,-0.18 -1.91,-0.54 -0.58,-0.36 -1.03,-0.87 -1.37,-1.53 -0.33,-0.67 -0.5,-1.44 -0.5,-2.31zm6.44 0.02c0,-0.65 -0.18,-1.16 -0.54,-1.54 -0.37,-0.37 -0.81,-0.56 -1.34,-0.56 -0.52,0 -0.96,0.19 -1.33,0.55 -0.36,0.37 -0.55,0.88 -0.55,1.53 0,0.65 0.19,1.17 0.55,1.55 0.37,0.37 0.81,0.57 1.33,0.57 0.53,0 0.97,-0.19 1.34,-0.57 0.36,-0.37 0.54,-0.88 0.54,-1.53zm7.81 -4.36c0.61,0 1.14,0.12 1.6,0.36 0.46,0.24 0.81,0.56 1.06,0.96l0 -1.2 2.63 0 0 8.46c0,0.78 -0.16,1.49 -0.47,2.12 -0.31,0.64 -0.79,1.14 -1.43,1.52 -0.64,0.37 -1.44,0.56 -2.4,0.56 -1.27,0 -2.3,-0.3 -3.1,-0.89 -0.79,-0.59 -1.24,-1.4 -1.35,-2.41l2.6 0c0.08,0.32 0.28,0.58 0.59,0.77 0.31,0.19 0.69,0.28 1.14,0.28 0.54,0 0.98,-0.16 1.3,-0.46 0.32,-0.31 0.49,-0.81 0.49,-1.49l0 -1.2c-0.26,0.4 -0.62,0.72 -1.07,0.97 -0.45,0.25 -0.98,0.37 -1.59,0.37 -0.7,0 -1.35,-0.18 -1.92,-0.54 -0.58,-0.36 -1.03,-0.87 -1.36,-1.53 -0.34,-0.67 -0.51,-1.44 -0.51,-2.31 0,-0.87 0.17,-1.63 0.51,-2.29 0.33,-0.66 0.78,-1.17 1.36,-1.52 0.57,-0.36 1.22,-0.53 1.92,-0.53zm2.66 4.36c0,-0.65 -0.19,-1.16 -0.55,-1.54 -0.37,-0.37 -0.81,-0.56 -1.33,-0.56 -0.53,0 -0.97,0.19 -1.34,0.55 -0.36,0.37 -0.54,0.88 -0.54,1.53 0,0.65 0.18,1.17 0.54,1.55 0.37,0.37 0.81,0.57 1.34,0.57 0.52,0 0.96,-0.19 1.33,-0.57 0.36,-0.37 0.55,-0.88 0.55,-1.53zm8.45 4.36c-0.84,0 -1.59,-0.18 -2.27,-0.53 -0.67,-0.36 -1.2,-0.86 -1.59,-1.52 -0.38,-0.66 -0.57,-1.43 -0.57,-2.31 0,-0.87 0.19,-1.64 0.58,-2.3 0.39,-0.67 0.93,-1.18 1.61,-1.53 0.67,-0.36 1.43,-0.53 2.28,-0.53 0.84,0 1.6,0.17 2.28,0.53 0.67,0.35 1.21,0.86 1.6,1.53 0.39,0.66 0.58,1.43 0.58,2.3 0,0.87 -0.19,1.64 -0.59,2.3 -0.4,0.66 -0.93,1.17 -1.62,1.53 -0.68,0.35 -1.44,0.53 -2.29,0.53zm0 -2.25c0.51,0 0.94,-0.18 1.29,-0.55 0.36,-0.36 0.53,-0.88 0.53,-1.56 0,-0.68 -0.17,-1.2 -0.51,-1.57 -0.35,-0.36 -0.77,-0.54 -1.27,-0.54 -0.52,0 -0.95,0.18 -1.28,0.53 -0.34,0.36 -0.51,0.89 -0.51,1.58 0,0.68 0.16,1.2 0.5,1.56 0.33,0.37 0.75,0.55 1.25,0.55zm21.42 -8.54l0 10.67 -2.63 0 0 -6.4 -2.42 6.4 -2.13 0 -2.43 -6.42 0 6.42 -2.64 0 0 -10.67 3.12 0 3.03 7.39 3.01 -7.39 3.09 0zm3.22 1.3c-0.46,0 -0.84,-0.13 -1.13,-0.4 -0.29,-0.27 -0.44,-0.6 -0.44,-0.99 0,-0.41 0.15,-0.75 0.44,-1.01 0.29,-0.27 0.67,-0.41 1.13,-0.41 0.45,0 0.83,0.14 1.12,0.41 0.29,0.26 0.44,0.6 0.44,1.01 0,0.39 -0.15,0.72 -0.44,0.99 -0.29,0.27 -0.67,0.4 -1.12,0.4zm1.31 0.89l0 8.48 -2.63 0 0 -8.48 2.63 0zm4.55 1.41c0.31,-0.47 0.69,-0.83 1.15,-1.1 0.47,-0.27 0.98,-0.4 1.54,-0.4l0 2.75 -0.72 0c-0.66,0 -1.15,0.14 -1.48,0.42 -0.33,0.27 -0.49,0.76 -0.49,1.46l0 3.94 -2.64 0 0 -8.48 2.64 0 0 1.41zm3.43 2.81c0,-0.87 0.17,-1.63 0.51,-2.29 0.33,-0.66 0.78,-1.17 1.36,-1.52 0.57,-0.36 1.22,-0.53 1.92,-0.53 0.61,0 1.14,0.12 1.6,0.36 0.46,0.24 0.81,0.56 1.05,0.96l0 -1.2 2.64 0 0 8.48 -2.64 0 0 -1.2c-0.25,0.39 -0.61,0.71 -1.07,0.96 -0.45,0.24 -0.99,0.36 -1.59,0.36 -0.7,0 -1.34,-0.18 -1.91,-0.54 -0.58,-0.36 -1.03,-0.87 -1.36,-1.53 -0.34,-0.67 -0.51,-1.44 -0.51,-2.31zm6.44 0.02c0,-0.65 -0.18,-1.16 -0.54,-1.54 -0.37,-0.37 -0.81,-0.56 -1.33,-0.56 -0.53,0 -0.97,0.19 -1.34,0.55 -0.36,0.37 -0.54,0.88 -0.54,1.53 0,0.65 0.18,1.17 0.54,1.55 0.37,0.37 0.81,0.57 1.34,0.57 0.52,0 0.96,-0.19 1.33,-0.57 0.36,-0.37 0.54,-0.88 0.54,-1.53zm9.79 -4.33c1.01,0 1.81,0.32 2.41,0.96 0.6,0.64 0.9,1.53 0.9,2.65l0 4.96 -2.62 0 0 -4.61c0,-0.56 -0.15,-1.01 -0.44,-1.32 -0.3,-0.31 -0.7,-0.47 -1.21,-0.47 -0.5,0 -0.9,0.16 -1.2,0.47 -0.3,0.31 -0.45,0.76 -0.45,1.32l0 4.61 -2.63 0 0 -8.48 2.63 0 0 1.12c0.27,-0.37 0.63,-0.67 1.08,-0.89 0.46,-0.22 0.96,-0.32 1.53,-0.32zm4.62 4.31c0,-0.87 0.17,-1.63 0.5,-2.29 0.34,-0.66 0.79,-1.17 1.37,-1.52 0.57,-0.36 1.21,-0.53 1.92,-0.53 0.57,0 1.08,0.11 1.55,0.35 0.47,0.23 0.84,0.54 1.1,0.94l0 -3.94 2.64 0 0 11.25 -2.64 0 0 -1.22c-0.24,0.41 -0.59,0.73 -1.05,0.98 -0.46,0.24 -0.99,0.36 -1.6,0.36 -0.71,0 -1.35,-0.18 -1.92,-0.54 -0.58,-0.36 -1.03,-0.87 -1.37,-1.53 -0.33,-0.67 -0.5,-1.44 -0.5,-2.31zm6.44 0.02c0,-0.65 -0.18,-1.16 -0.54,-1.54 -0.37,-0.37 -0.81,-0.56 -1.34,-0.56 -0.52,0 -0.97,0.19 -1.33,0.55 -0.36,0.37 -0.55,0.88 -0.55,1.53 0,0.65 0.19,1.17 0.55,1.55 0.36,0.37 0.81,0.57 1.33,0.57 0.53,0 0.97,-0.19 1.34,-0.57 0.36,-0.37 0.54,-0.88 0.54,-1.53zm4.02 -0.02c0,-0.87 0.17,-1.63 0.51,-2.29 0.33,-0.66 0.78,-1.17 1.36,-1.52 0.57,-0.36 1.22,-0.53 1.92,-0.53 0.61,0 1.14,0.12 1.6,0.36 0.46,0.24 0.81,0.56 1.05,0.96l0 -1.2 2.64 0 0 8.48 -2.64 0 0 -1.2c-0.25,0.39 -0.61,0.71 -1.07,0.96 -0.45,0.24 -0.98,0.36 -1.59,0.36 -0.7,0 -1.34,-0.18 -1.91,-0.54 -0.58,-0.36 -1.03,-0.87 -1.36,-1.53 -0.34,-0.67 -0.51,-1.44 -0.51,-2.31zm6.44 0.02c0,-0.65 -0.18,-1.16 -0.54,-1.54 -0.37,-0.37 -0.81,-0.56 -1.33,-0.56 -0.53,0 -0.97,0.19 -1.34,0.55 -0.36,0.37 -0.54,0.88 -0.54,1.53 0,0.65 0.18,1.17 0.54,1.55 0.37,0.37 0.81,0.57 1.34,0.57 0.52,0 0.96,-0.19 1.33,-0.57 0.36,-0.37 0.54,-0.88 0.54,-1.53z"/>
   <path class="fil1 str0" d="M88.95 26.19l0 0.52 -3.59 0 0 3.87 3.59 0 0 0.52 -3.59 0 0 4.39 -0.53 0 0 -9.3 4.12 0zm1.41 3.59l0.53 0 0 1.04c0.11,-0.15 0.24,-0.3 0.39,-0.45 0.46,-0.46 0.94,-0.7 1.43,-0.72l0 0.57c-0.33,0.01 -0.68,0.2 -1.03,0.55 -0.51,0.49 -0.77,1.08 -0.79,1.77l0 2.95 -0.53 0 0 -5.71zm6.29 -0.52c0.89,0 1.66,0.32 2.29,0.94 0.63,0.62 0.94,1.38 0.94,2.26 0,0.88 -0.31,1.63 -0.94,2.25 -0.63,0.63 -1.4,0.94 -2.29,0.94 -0.89,0 -1.65,-0.31 -2.29,-0.94 -0.63,-0.62 -0.94,-1.37 -0.94,-2.25 0,-0.88 0.31,-1.64 0.94,-2.26 0.64,-0.62 1.4,-0.94 2.29,-0.94zm0 0.56c-0.74,0 -1.37,0.26 -1.89,0.77 -0.52,0.52 -0.78,1.14 -0.78,1.87 0,0.73 0.26,1.35 0.78,1.86 0.52,0.51 1.15,0.77 1.89,0.77 0.74,0 1.37,-0.26 1.89,-0.77 0.52,-0.51 0.78,-1.13 0.78,-1.86 0,-0.73 -0.26,-1.35 -0.78,-1.87 -0.52,-0.51 -1.15,-0.77 -1.89,-0.77zm5.17 1.23l0 4.44 -0.52 0 0 -5.71 0.52 0 0 0.37c0.49,-0.48 1.05,-0.71 1.69,-0.71 0.68,0 1.24,0.21 1.67,0.63 0.42,0.42 0.64,0.96 0.65,1.6l0 3.82 -0.52 0 0 -3.77c0,-0.49 -0.18,-0.9 -0.54,-1.24 -0.35,-0.35 -0.77,-0.52 -1.26,-0.52 -0.49,0 -0.91,0.17 -1.26,0.51 -0.19,0.19 -0.33,0.38 -0.43,0.58zm6.61 -1.27l0 -2.43 0.53 0 0 2.43 1.17 0 0 0.52 -1.17 0 0 5.19 -0.53 0 0 -5.19 -1.18 0 0 -0.52 1.18 0zm4.22 4.64c0.5,0.45 1.09,0.67 1.78,0.67 0.73,0 1.37,-0.26 1.89,-0.77 0.06,-0.07 0.13,-0.14 0.18,-0.2l0.57 0.19c-0.11,0.14 -0.22,0.28 -0.35,0.4 -0.63,0.63 -1.4,0.94 -2.29,0.94 -0.89,0 -1.66,-0.31 -2.29,-0.94 -0.63,-0.62 -0.94,-1.37 -0.94,-2.26 0,-0.88 0.31,-1.63 0.94,-2.25 0.63,-0.62 1.4,-0.94 2.29,-0.94 0.76,0 1.43,0.23 2.01,0.68 0.09,0.08 0.18,0.17 0.28,0.26 0.03,0.04 0.07,0.07 0.1,0.1l-0.4 0.4 -3.77 3.72zm3.38 -4.08c-0.46,-0.34 -0.99,-0.52 -1.6,-0.52 -0.74,0 -1.37,0.26 -1.89,0.77 -0.52,0.51 -0.78,1.13 -0.78,1.86 0,0.6 0.18,1.13 0.53,1.58l3.74 -3.69zm2.98 0.71l0 4.44 -0.53 0 0 -5.71 0.53 0 0 0.37c0.48,-0.48 1.04,-0.71 1.68,-0.71 0.68,0 1.24,0.21 1.67,0.63 0.43,0.42 0.64,0.96 0.66,1.6l0 3.82 -0.53 0 0 -3.77c0,-0.49 -0.18,-0.9 -0.54,-1.24 -0.35,-0.35 -0.77,-0.52 -1.26,-0.52 -0.48,0 -0.91,0.17 -1.26,0.51 -0.19,0.19 -0.33,0.38 -0.42,0.58zm12.02 4.44l-0.53 0 0 -1.17c-0.11,0.14 -0.22,0.27 -0.34,0.39 -0.63,0.63 -1.4,0.94 -2.29,0.94 -0.89,0 -1.65,-0.31 -2.28,-0.94 -0.64,-0.62 -0.95,-1.37 -0.95,-2.25 0,-0.88 0.31,-1.64 0.95,-2.26 0.63,-0.62 1.39,-0.94 2.28,-0.94 0.89,0 1.66,0.32 2.29,0.94 0.12,0.12 0.23,0.25 0.34,0.39l0 -4.4 0.53 0 0 9.3zm-0.53 -2.51l0 -1.04c-0.1,-0.51 -0.35,-0.96 -0.74,-1.35 -0.52,-0.51 -1.15,-0.77 -1.89,-0.77 -0.74,0 -1.37,0.26 -1.89,0.77 -0.52,0.52 -0.78,1.14 -0.78,1.87 0,0.73 0.26,1.35 0.78,1.86 0.52,0.51 1.15,0.77 1.89,0.77 0.74,0 1.37,-0.26 1.89,-0.77 0.39,-0.39 0.64,-0.84 0.74,-1.34zm12.7 2.51l-0.53 0 0 -1.17c-0.1,0.14 -0.21,0.27 -0.33,0.39 -0.63,0.63 -1.4,0.94 -2.29,0.94 -0.9,0 -1.66,-0.31 -2.29,-0.94 -0.63,-0.62 -0.95,-1.37 -0.95,-2.25 0,-0.88 0.32,-1.64 0.95,-2.26 0.63,-0.62 1.39,-0.94 2.29,-0.94 0.89,0 1.66,0.32 2.29,0.94 0.12,0.12 0.23,0.25 0.33,0.39l0 -4.4 0.53 0 0 9.3zm-0.53 -2.51l0 -1.04c-0.1,-0.51 -0.34,-0.96 -0.73,-1.35 -0.53,-0.51 -1.16,-0.77 -1.89,-0.77 -0.74,0 -1.37,0.26 -1.89,0.77 -0.53,0.52 -0.79,1.14 -0.79,1.87 0,0.73 0.26,1.35 0.79,1.86 0.52,0.51 1.15,0.77 1.89,0.77 0.73,0 1.36,-0.26 1.89,-0.77 0.39,-0.39 0.63,-0.84 0.73,-1.34zm3.4 1.44c0.5,0.45 1.09,0.67 1.78,0.67 0.73,0 1.37,-0.26 1.89,-0.77 0.06,-0.07 0.13,-0.14 0.18,-0.2l0.57 0.19c-0.11,0.14 -0.22,0.28 -0.35,0.4 -0.63,0.63 -1.4,0.94 -2.29,0.94 -0.89,0 -1.66,-0.31 -2.29,-0.94 -0.63,-0.62 -0.94,-1.37 -0.94,-2.26 0,-0.88 0.31,-1.63 0.94,-2.25 0.63,-0.62 1.4,-0.94 2.29,-0.94 0.76,0 1.43,0.23 2,0.68 0.1,0.08 0.19,0.17 0.29,0.26 0.03,0.04 0.07,0.07 0.1,0.1l-0.4 0.4 -3.77 3.72zm3.38 -4.08c-0.46,-0.34 -0.99,-0.52 -1.6,-0.52 -0.74,0 -1.37,0.26 -1.89,0.77 -0.52,0.51 -0.78,1.13 -0.78,1.86 0,0.6 0.18,1.13 0.53,1.58l3.74 -3.69zm4.58 4.19l2.22 -4.75 0.62 0 -2.84 5.86 -2.84 -5.86 0.61 0 2.23 4.75zm5 -0.11c0.49,0.45 1.09,0.67 1.77,0.67 0.74,0 1.37,-0.26 1.9,-0.77 0.06,-0.07 0.12,-0.14 0.18,-0.2l0.56 0.19c-0.1,0.14 -0.22,0.28 -0.35,0.4 -0.63,0.63 -1.39,0.94 -2.29,0.94 -0.89,0 -1.65,-0.31 -2.28,-0.94 -0.63,-0.62 -0.95,-1.37 -0.95,-2.26 0,-0.88 0.32,-1.63 0.95,-2.25 0.63,-0.62 1.39,-0.94 2.28,-0.94 0.77,0 1.44,0.23 2.01,0.68 0.1,0.08 0.19,0.17 0.28,0.26 0.04,0.04 0.07,0.07 0.11,0.1l-0.41 0.4 -3.76 3.72zm3.38 -4.08c-0.46,-0.34 -1,-0.52 -1.61,-0.52 -0.73,0 -1.36,0.26 -1.88,0.77 -0.52,0.51 -0.78,1.13 -0.78,1.86 0,0.6 0.17,1.13 0.53,1.58l3.74 -3.69zm2.97 -4.15l0 9.3 -0.52 0 0 -9.3 0.52 0zm4.65 3.07c0.9,0 1.66,0.32 2.29,0.94 0.63,0.62 0.94,1.38 0.94,2.26 0,0.88 -0.31,1.63 -0.94,2.25 -0.63,0.63 -1.39,0.94 -2.29,0.94 -0.89,0 -1.65,-0.31 -2.28,-0.94 -0.63,-0.62 -0.95,-1.37 -0.95,-2.25 0,-0.88 0.32,-1.64 0.95,-2.26 0.63,-0.62 1.39,-0.94 2.28,-0.94zm0 0.56c-0.74,0 -1.37,0.26 -1.89,0.77 -0.52,0.52 -0.78,1.14 -0.78,1.87 0,0.73 0.26,1.35 0.78,1.86 0.52,0.51 1.15,0.77 1.89,0.77 0.74,0 1.37,-0.26 1.89,-0.77 0.52,-0.51 0.78,-1.13 0.78,-1.86 0,-0.73 -0.26,-1.35 -0.78,-1.87 -0.52,-0.51 -1.15,-0.77 -1.89,-0.77zm4.65 -0.04l0.53 0 0 0.8c0.1,-0.13 0.21,-0.26 0.33,-0.38 0.64,-0.62 1.4,-0.93 2.29,-0.93 0.89,0 1.66,0.31 2.28,0.93 0.64,0.62 0.95,1.38 0.95,2.26 0,0.88 -0.31,1.63 -0.95,2.25 -0.62,0.63 -1.39,0.94 -2.28,0.94 -0.89,0 -1.65,-0.31 -2.29,-0.94 -0.12,-0.12 -0.23,-0.25 -0.33,-0.38l0 3.33 -0.53 0 0 -7.88zm0.53 2.13l0 1.09c0.1,0.5 0.34,0.95 0.73,1.32 0.52,0.52 1.15,0.78 1.89,0.78 0.74,0 1.36,-0.26 1.89,-0.78 0.52,-0.51 0.78,-1.13 0.78,-1.86 0,-0.73 -0.26,-1.35 -0.78,-1.87 -0.53,-0.51 -1.15,-0.77 -1.89,-0.77 -0.74,0 -1.37,0.26 -1.89,0.77 -0.39,0.38 -0.63,0.82 -0.73,1.32zm8.42 2.51c0.5,0.45 1.09,0.67 1.78,0.67 0.74,0 1.37,-0.26 1.89,-0.77 0.07,-0.07 0.13,-0.14 0.19,-0.2l0.56 0.19c-0.1,0.14 -0.22,0.28 -0.35,0.4 -0.63,0.63 -1.39,0.94 -2.29,0.94 -0.89,0 -1.65,-0.31 -2.28,-0.94 -0.64,-0.62 -0.95,-1.37 -0.95,-2.26 0,-0.88 0.31,-1.63 0.95,-2.25 0.63,-0.62 1.39,-0.94 2.28,-0.94 0.77,0 1.44,0.23 2.01,0.68 0.09,0.08 0.19,0.17 0.28,0.26 0.04,0.04 0.07,0.07 0.1,0.1l-0.4 0.4 -3.77 3.72zm3.38 -4.08c-0.46,-0.34 -0.99,-0.52 -1.6,-0.52 -0.73,0 -1.36,0.26 -1.88,0.77 -0.53,0.51 -0.79,1.13 -0.79,1.86 0,0.6 0.18,1.13 0.53,1.58l3.74 -3.69zm2.45 -0.56l0.53 0 0 1.04c0.11,-0.15 0.24,-0.3 0.39,-0.45 0.46,-0.46 0.94,-0.7 1.43,-0.72l0 0.57c-0.33,0.01 -0.68,0.2 -1.03,0.55 -0.51,0.49 -0.77,1.08 -0.79,1.77l0 2.95 -0.53 0 0 -5.71z"/>
   <path class="fil2" d="M12.03 45.5l-9.25 0 -2.78 -33.75 9.25 0 2.78 33.75z"/>
   <path class="fil3" d="M2.78 0.5l9.25 0 -2.78 11.25 -9.25 0 2.78 -11.25z"/>
   <path class="fil4" d="M12.03 0.5l-2.78 11.25 2.78 33.75 2.78 -11.25 -2.78 -33.75z"/>
   <path class="fil3" d="M25.42 0.5l-9.26 0 -2.77 33.75 9.25 0 2.78 -33.75z"/>
   <path class="fil5" d="M16.16 45.5l9.26 0 -2.78 -11.25 -9.25 0 2.77 11.25z"/>
   <path class="fil4" d="M25.42 0.5l2.78 11.25 -2.78 33.75 -2.78 -11.25 2.78 -33.75z"/>
   <path class="fil2" d="M38.81 45.5l-9.26 0 -2.78 -33.75 9.26 0 2.78 33.75z"/>
   <path class="fil3" d="M29.55 0.5l9.26 0 -2.78 11.25 -9.26 0 2.78 -11.25z"/>
   <path class="fil4" d="M38.81 0.5l-2.78 11.25 2.78 33.75 2.77 -11.25 -2.77 -33.75z"/>
   <path class="fil2" d="M48.49 23l-9.25 0 2.77 -22.5 9.26 0 -2.78 22.5z"/>
   <path class="fil5" d="M42.01 45.5l9.26 0 -2.78 -22.5 -9.25 0 2.77 22.5z"/>
   <path class="fil4" d="M51.27 45.5l-2.78 -22.5 2.78 -22.5 2.78 22.5 -2.78 22.5z"/>
   <path class="fil2" d="M64.19 45.5l-9.25 0 -2.78 -33.75 9.26 0 2.77 33.75z"/>
   <path class="fil5" d="M54.94 0.5l9.25 0 -2.77 11.25 -9.26 0 2.78 -11.25z"/>
   <path class="fil4" d="M64.19 45.5l2.78 -11.25 -2.78 -33.75 -2.77 11.25 2.77 33.75z"/>
  </g>
 </g>
</svg>
