<?xml version="1.0" encoding="UTF-8"?>
<!DOCTYPE svg PUBLIC "-//W3C//DTD SVG 1.1//EN" "http://www.w3.org/Graphics/SVG/1.1/DTD/svg11.dtd">
<!-- Creator: CorelDRAW 2020 (64-Bit) -->
<svg xmlns="http://www.w3.org/2000/svg" xml:space="preserve" width="105px" height="80px" version="1.1" style="shape-rendering:geometricPrecision; text-rendering:geometricPrecision; image-rendering:optimizeQuality; fill-rule:evenodd; clip-rule:evenodd"
viewBox="0 0 105 80"
 xmlns:xlink="http://www.w3.org/1999/xlink"
 xmlns:xodm="http://www.corel.com/coreldraw/odm/2003">
 <defs>
  <style type="text/css">
   <![CDATA[
    .str0 {stroke:gray;stroke-width:0.83;stroke-miterlimit:22.9256}
    .fil4 {fill:#204051}
    .fil3 {fill:#3B6978}
    .fil2 {fill:#84A9AC}
    .fil5 {fill:#CAE8D5}
    .fil0 {fill:black;fill-rule:nonzero}
    .fil1 {fill:gray;fill-rule:nonzero}
   ]]>
  </style>
 </defs>
 <g id="Layer_x0020_1">
  <metadata id="CorelCorpID_0Corel-Layer"/>
  <path class="fil0" d="M9.58 56.32l0 1.71 -2.32 0 0 7.03 -2.13 0 0 -7.03 -2.31 0 0 -1.71 6.76 0zm5.34 1.72c0.8,0 1.44,0.26 1.92,0.79 0.48,0.53 0.72,1.25 0.72,2.17l0 4.06 -2.12 0 0 -3.77c0,-0.47 -0.12,-0.83 -0.36,-1.08 -0.24,-0.26 -0.56,-0.39 -0.97,-0.39 -0.41,0 -0.73,0.13 -0.97,0.39 -0.24,0.25 -0.36,0.61 -0.36,1.08l0 3.77 -2.13 0 0 -9.21 2.13 0 0 3.2c0.21,-0.31 0.51,-0.55 0.88,-0.74 0.38,-0.18 0.79,-0.27 1.26,-0.27zm5.19 -0.65c-0.37,0 -0.68,-0.11 -0.91,-0.33 -0.24,-0.22 -0.36,-0.49 -0.36,-0.81 0,-0.33 0.12,-0.61 0.36,-0.83 0.23,-0.22 0.54,-0.33 0.91,-0.33 0.37,0 0.67,0.11 0.9,0.33 0.24,0.22 0.36,0.5 0.36,0.83 0,0.32 -0.12,0.59 -0.36,0.81 -0.23,0.22 -0.53,0.33 -0.9,0.33zm1.06 0.73l0 6.94 -2.13 0 0 -6.94 2.13 0zm1.12 3.46c0,-0.72 0.13,-1.34 0.4,-1.88 0.27,-0.54 0.64,-0.96 1.11,-1.25 0.46,-0.29 0.98,-0.43 1.55,-0.43 0.49,0 0.92,0.1 1.29,0.29 0.37,0.2 0.65,0.47 0.85,0.79l0 -0.98 2.13 0 0 6.94 -2.13 0 0 -0.98c-0.2,0.32 -0.49,0.58 -0.86,0.78 -0.37,0.2 -0.8,0.3 -1.29,0.3 -0.57,0 -1.08,-0.15 -1.54,-0.44 -0.47,-0.3 -0.84,-0.71 -1.11,-1.26 -0.27,-0.54 -0.4,-1.17 -0.4,-1.88zm5.2 0.01c0,-0.53 -0.14,-0.95 -0.44,-1.26 -0.29,-0.31 -0.65,-0.46 -1.08,-0.46 -0.42,0 -0.78,0.15 -1.07,0.45 -0.3,0.31 -0.44,0.72 -0.44,1.26 0,0.53 0.14,0.95 0.44,1.26 0.29,0.31 0.65,0.47 1.07,0.47 0.43,0 0.79,-0.16 1.08,-0.46 0.3,-0.31 0.44,-0.73 0.44,-1.26zm6.31 -3.57c0.49,0 0.92,0.1 1.29,0.29 0.37,0.2 0.66,0.47 0.86,0.79l0 -0.98 2.12 0 0 6.93c0,0.64 -0.12,1.22 -0.38,1.74 -0.25,0.51 -0.63,0.93 -1.15,1.23 -0.52,0.31 -1.17,0.47 -1.94,0.47 -1.03,0 -1.86,-0.25 -2.5,-0.73 -0.64,-0.49 -1.01,-1.15 -1.1,-1.98l2.11 0c0.06,0.27 0.22,0.48 0.47,0.63 0.25,0.16 0.56,0.23 0.92,0.23 0.44,0 0.79,-0.12 1.05,-0.38 0.27,-0.25 0.4,-0.65 0.4,-1.21l0 -0.98c-0.21,0.32 -0.5,0.58 -0.86,0.79 -0.37,0.2 -0.8,0.3 -1.29,0.3 -0.57,0 -1.09,-0.15 -1.55,-0.44 -0.47,-0.3 -0.83,-0.71 -1.1,-1.26 -0.27,-0.54 -0.41,-1.17 -0.41,-1.88 0,-0.72 0.14,-1.34 0.41,-1.88 0.27,-0.54 0.63,-0.96 1.1,-1.25 0.46,-0.29 0.98,-0.43 1.55,-0.43zm2.15 3.57c0,-0.53 -0.15,-0.95 -0.45,-1.26 -0.29,-0.31 -0.65,-0.46 -1.07,-0.46 -0.43,0 -0.79,0.15 -1.08,0.45 -0.29,0.31 -0.44,0.72 -0.44,1.26 0,0.53 0.15,0.95 0.44,1.26 0.29,0.31 0.65,0.47 1.08,0.47 0.42,0 0.78,-0.16 1.07,-0.46 0.3,-0.31 0.45,-0.73 0.45,-1.26zm6.83 3.57c-0.68,0 -1.29,-0.14 -1.84,-0.43 -0.54,-0.29 -0.97,-0.71 -1.28,-1.25 -0.31,-0.54 -0.47,-1.17 -0.47,-1.89 0,-0.72 0.16,-1.34 0.48,-1.89 0.31,-0.54 0.74,-0.96 1.29,-1.25 0.55,-0.29 1.16,-0.43 1.85,-0.43 0.68,0 1.29,0.14 1.84,0.43 0.54,0.29 0.98,0.71 1.29,1.25 0.32,0.55 0.47,1.17 0.47,1.89 0,0.71 -0.15,1.34 -0.47,1.89 -0.32,0.54 -0.76,0.96 -1.31,1.25 -0.55,0.29 -1.17,0.43 -1.85,0.43zm0 -1.84c0.41,0 0.75,-0.15 1.04,-0.45 0.29,-0.3 0.43,-0.73 0.43,-1.28 0,-0.56 -0.14,-0.99 -0.42,-1.28 -0.28,-0.3 -0.62,-0.45 -1.02,-0.45 -0.42,0 -0.76,0.14 -1.04,0.44 -0.27,0.29 -0.41,0.72 -0.41,1.29 0,0.55 0.14,0.98 0.41,1.28 0.27,0.3 0.6,0.45 1.01,0.45zm17.3 -7l0 8.74 -2.12 0 0 -5.24 -1.96 5.24 -1.72 0 -1.96 -5.25 0 5.25 -2.13 0 0 -8.74 2.51 0 2.45 6.05 2.43 -6.05 2.5 0zm2.61 1.07c-0.38,0 -0.68,-0.11 -0.92,-0.33 -0.24,-0.22 -0.35,-0.49 -0.35,-0.81 0,-0.33 0.11,-0.61 0.35,-0.83 0.24,-0.22 0.54,-0.33 0.92,-0.33 0.36,0 0.66,0.11 0.9,0.33 0.23,0.22 0.35,0.5 0.35,0.83 0,0.32 -0.12,0.59 -0.35,0.81 -0.24,0.22 -0.54,0.33 -0.9,0.33zm1.05 0.73l0 6.94 -2.12 0 0 -6.94 2.12 0zm3.68 1.15c0.25,-0.38 0.56,-0.68 0.93,-0.9 0.37,-0.22 0.79,-0.33 1.25,-0.33l0 2.25 -0.59 0c-0.53,0 -0.93,0.12 -1.2,0.35 -0.26,0.22 -0.39,0.63 -0.39,1.2l0 3.22 -2.13 0 0 -6.94 2.13 0 0 1.15zm2.77 2.31c0,-0.72 0.14,-1.34 0.41,-1.88 0.27,-0.54 0.63,-0.96 1.1,-1.25 0.46,-0.29 0.98,-0.43 1.55,-0.43 0.49,0 0.92,0.1 1.29,0.29 0.37,0.2 0.66,0.47 0.86,0.79l0 -0.98 2.12 0 0 6.94 -2.12 0 0 -0.98c-0.21,0.32 -0.5,0.58 -0.87,0.78 -0.37,0.2 -0.8,0.3 -1.29,0.3 -0.56,0 -1.08,-0.15 -1.54,-0.44 -0.47,-0.3 -0.83,-0.71 -1.1,-1.26 -0.27,-0.54 -0.41,-1.17 -0.41,-1.88zm5.21 0.01c0,-0.53 -0.15,-0.95 -0.45,-1.26 -0.29,-0.31 -0.65,-0.46 -1.07,-0.46 -0.43,0 -0.78,0.15 -1.08,0.45 -0.29,0.31 -0.44,0.72 -0.44,1.26 0,0.53 0.15,0.95 0.44,1.26 0.3,0.31 0.65,0.47 1.08,0.47 0.42,0 0.78,-0.16 1.07,-0.46 0.3,-0.31 0.45,-0.73 0.45,-1.26zm7.9 -3.55c0.82,0 1.46,0.26 1.95,0.79 0.49,0.53 0.73,1.25 0.73,2.17l0 4.06 -2.12 0 0 -3.77c0,-0.47 -0.12,-0.83 -0.36,-1.08 -0.24,-0.26 -0.56,-0.39 -0.97,-0.39 -0.41,0 -0.73,0.13 -0.97,0.39 -0.24,0.25 -0.36,0.61 -0.36,1.08l0 3.77 -2.13 0 0 -6.94 2.13 0 0 0.92c0.21,-0.31 0.5,-0.55 0.87,-0.73 0.36,-0.18 0.78,-0.27 1.23,-0.27zm3.74 3.54c0,-0.72 0.13,-1.34 0.4,-1.88 0.27,-0.54 0.64,-0.96 1.1,-1.25 0.47,-0.29 0.99,-0.43 1.56,-0.43 0.45,0 0.87,0.09 1.25,0.28 0.38,0.19 0.67,0.45 0.89,0.77l0 -3.22 2.13 0 0 9.21 -2.13 0 0 -0.99c-0.2,0.33 -0.48,0.59 -0.85,0.79 -0.37,0.2 -0.8,0.3 -1.29,0.3 -0.57,0 -1.09,-0.15 -1.56,-0.44 -0.46,-0.3 -0.83,-0.71 -1.1,-1.26 -0.27,-0.54 -0.4,-1.17 -0.4,-1.88zm5.2 0.01c0,-0.53 -0.15,-0.95 -0.44,-1.26 -0.3,-0.31 -0.66,-0.46 -1.08,-0.46 -0.42,0 -0.78,0.15 -1.08,0.45 -0.29,0.31 -0.44,0.72 -0.44,1.26 0,0.53 0.15,0.95 0.44,1.26 0.3,0.31 0.66,0.47 1.08,0.47 0.42,0 0.78,-0.16 1.08,-0.46 0.29,-0.31 0.44,-0.73 0.44,-1.26zm3.25 -0.01c0,-0.72 0.13,-1.34 0.4,-1.88 0.27,-0.54 0.64,-0.96 1.11,-1.25 0.46,-0.29 0.98,-0.43 1.55,-0.43 0.49,0 0.92,0.1 1.29,0.29 0.37,0.2 0.65,0.47 0.85,0.79l0 -0.98 2.13 0 0 6.94 -2.13 0 0 -0.98c-0.2,0.32 -0.49,0.58 -0.86,0.78 -0.37,0.2 -0.8,0.3 -1.29,0.3 -0.57,0 -1.08,-0.15 -1.54,-0.44 -0.47,-0.3 -0.84,-0.71 -1.11,-1.26 -0.27,-0.54 -0.4,-1.17 -0.4,-1.88zm5.2 0.01c0,-0.53 -0.15,-0.95 -0.44,-1.26 -0.29,-0.31 -0.65,-0.46 -1.08,-0.46 -0.42,0 -0.78,0.15 -1.07,0.45 -0.3,0.31 -0.45,0.72 -0.45,1.26 0,0.53 0.15,0.95 0.45,1.26 0.29,0.31 0.65,0.47 1.07,0.47 0.43,0 0.79,-0.16 1.08,-0.46 0.29,-0.31 0.44,-0.73 0.44,-1.26z"/>
  <path class="fil1 str0" d="M13.1 69.72l0 0.42 -2.9 0 0 3.17 2.9 0 0 0.43 -2.9 0 0 3.59 -0.42 0 0 -7.61 3.32 0zm1.14 2.94l0.43 0 0 0.85c0.09,-0.13 0.19,-0.25 0.31,-0.37 0.38,-0.38 0.76,-0.57 1.16,-0.59l0 0.46c-0.27,0.02 -0.55,0.17 -0.84,0.46 -0.4,0.4 -0.61,0.88 -0.63,1.45l0 2.41 -0.43 0 0 -4.67zm5.08 -0.43c0.72,0 1.34,0.26 1.85,0.77 0.51,0.51 0.76,1.13 0.76,1.85 0,0.72 -0.25,1.34 -0.76,1.84 -0.51,0.52 -1.13,0.77 -1.85,0.77 -0.72,0 -1.33,-0.25 -1.84,-0.77 -0.51,-0.5 -0.77,-1.12 -0.77,-1.84 0,-0.72 0.26,-1.34 0.77,-1.85 0.51,-0.51 1.12,-0.77 1.84,-0.77zm0 0.46c-0.59,0 -1.1,0.21 -1.52,0.63 -0.43,0.42 -0.64,0.93 -0.64,1.53 0,0.6 0.21,1.1 0.64,1.53 0.42,0.41 0.93,0.62 1.52,0.62 0.6,0 1.11,-0.21 1.53,-0.62 0.42,-0.43 0.63,-0.93 0.63,-1.53 0,-0.6 -0.21,-1.11 -0.63,-1.53 -0.42,-0.42 -0.93,-0.63 -1.53,-0.63zm4.18 1.01l0 3.63 -0.42 0 0 -4.67 0.42 0 0 0.3c0.39,-0.39 0.85,-0.58 1.36,-0.58 0.56,0 1,0.17 1.35,0.51 0.35,0.35 0.52,0.79 0.53,1.31l0 3.13 -0.42 0 0 -3.09c0,-0.4 -0.15,-0.73 -0.44,-1.01 -0.28,-0.29 -0.62,-0.43 -1.02,-0.43 -0.39,0 -0.73,0.14 -1.01,0.42 -0.16,0.15 -0.27,0.31 -0.35,0.48zm5.34 -1.04l0 -1.99 0.42 0 0 1.99 0.96 0 0 0.42 -0.96 0 0 4.25 -0.42 0 0 -4.25 -0.95 0 0 -0.42 0.95 0zm3.41 3.79c0.4,0.37 0.88,0.55 1.43,0.55 0.6,0 1.11,-0.21 1.53,-0.63 0.06,-0.05 0.11,-0.11 0.15,-0.16l0.46 0.16c-0.09,0.11 -0.18,0.22 -0.28,0.32 -0.52,0.52 -1.13,0.77 -1.86,0.77 -0.71,0 -1.33,-0.25 -1.84,-0.77 -0.51,-0.5 -0.77,-1.12 -0.77,-1.84 0,-0.73 0.26,-1.34 0.77,-1.85 0.51,-0.51 1.13,-0.77 1.84,-0.77 0.62,0 1.16,0.19 1.63,0.56 0.07,0.06 0.15,0.13 0.23,0.21 0.02,0.03 0.05,0.06 0.08,0.08l-0.33 0.33 -3.04 3.04zm2.73 -3.33c-0.37,-0.29 -0.8,-0.43 -1.3,-0.43 -0.59,0 -1.1,0.21 -1.52,0.63 -0.42,0.42 -0.63,0.93 -0.63,1.53 0,0.49 0.14,0.92 0.43,1.29l3.02 -3.02zm2.41 0.58l0 3.63 -0.43 0 0 -4.67 0.43 0 0 0.3c0.38,-0.39 0.84,-0.58 1.36,-0.58 0.55,0 1,0.17 1.34,0.51 0.35,0.35 0.53,0.79 0.53,1.31l0 3.13 -0.42 0 0 -3.09c0,-0.4 -0.15,-0.73 -0.43,-1.01 -0.29,-0.29 -0.63,-0.43 -1.02,-0.43 -0.4,0 -0.74,0.14 -1.02,0.42 -0.16,0.15 -0.27,0.31 -0.34,0.48zm9.71 3.63l-0.43 0 0 -0.95c-0.08,0.11 -0.17,0.21 -0.27,0.31 -0.51,0.52 -1.13,0.77 -1.85,0.77 -0.72,0 -1.34,-0.25 -1.85,-0.77 -0.51,-0.5 -0.77,-1.12 -0.77,-1.84 0,-0.72 0.26,-1.34 0.77,-1.85 0.51,-0.51 1.13,-0.77 1.85,-0.77 0.72,0 1.34,0.26 1.85,0.77 0.1,0.1 0.19,0.21 0.27,0.32l0 -3.6 0.43 0 0 7.61zm-0.43 -2.06l0 -0.84c-0.08,-0.42 -0.28,-0.79 -0.6,-1.11 -0.42,-0.42 -0.93,-0.63 -1.52,-0.63 -0.6,0 -1.11,0.21 -1.53,0.63 -0.42,0.42 -0.63,0.93 -0.63,1.53 0,0.6 0.21,1.1 0.63,1.53 0.42,0.41 0.93,0.62 1.53,0.62 0.59,0 1.1,-0.21 1.52,-0.63 0.32,-0.31 0.52,-0.68 0.6,-1.1zm10.26 2.06l-0.43 0 0 -0.95c-0.08,0.11 -0.17,0.21 -0.27,0.31 -0.51,0.52 -1.12,0.77 -1.85,0.77 -0.72,0 -1.33,-0.25 -1.84,-0.77 -0.51,-0.5 -0.77,-1.12 -0.77,-1.84 0,-0.72 0.26,-1.34 0.77,-1.85 0.51,-0.51 1.12,-0.77 1.84,-0.77 0.73,0 1.34,0.26 1.85,0.77 0.1,0.1 0.19,0.21 0.27,0.32l0 -3.6 0.43 0 0 7.61zm-0.43 -2.06l0 -0.84c-0.08,-0.42 -0.27,-0.79 -0.59,-1.11 -0.42,-0.42 -0.93,-0.63 -1.53,-0.63 -0.59,0 -1.1,0.21 -1.52,0.63 -0.43,0.42 -0.64,0.93 -0.64,1.53 0,0.6 0.21,1.1 0.64,1.53 0.42,0.41 0.93,0.62 1.52,0.62 0.6,0 1.11,-0.21 1.53,-0.63 0.32,-0.31 0.51,-0.68 0.59,-1.1zm2.75 1.18c0.4,0.37 0.88,0.55 1.44,0.55 0.59,0 1.1,-0.21 1.52,-0.63 0.06,-0.05 0.11,-0.11 0.15,-0.16l0.46 0.16c-0.09,0.11 -0.18,0.22 -0.28,0.32 -0.52,0.52 -1.13,0.77 -1.85,0.77 -0.72,0 -1.34,-0.25 -1.85,-0.77 -0.51,-0.5 -0.77,-1.12 -0.77,-1.84 0,-0.73 0.26,-1.34 0.77,-1.85 0.51,-0.51 1.13,-0.77 1.85,-0.77 0.61,0 1.16,0.19 1.62,0.56 0.07,0.06 0.15,0.13 0.23,0.21 0.02,0.03 0.05,0.06 0.08,0.08l-0.33 0.33 -3.04 3.04zm2.73 -3.33c-0.37,-0.29 -0.8,-0.43 -1.29,-0.43 -0.6,0 -1.11,0.21 -1.53,0.63 -0.42,0.42 -0.63,0.93 -0.63,1.53 0,0.49 0.14,0.92 0.43,1.29l3.02 -3.02zm3.7 3.43l1.8 -3.89 0.49 0 -2.29 4.8 -2.29 -4.8 0.49 0 1.8 3.89zm4.04 -0.1c0.4,0.37 0.88,0.55 1.43,0.55 0.6,0 1.11,-0.21 1.53,-0.63 0.06,-0.05 0.11,-0.11 0.15,-0.16l0.46 0.16c-0.09,0.11 -0.18,0.22 -0.28,0.32 -0.52,0.52 -1.13,0.77 -1.86,0.77 -0.72,0 -1.33,-0.25 -1.84,-0.77 -0.51,-0.5 -0.77,-1.12 -0.77,-1.84 0,-0.73 0.26,-1.34 0.77,-1.85 0.51,-0.51 1.12,-0.77 1.84,-0.77 0.62,0 1.16,0.19 1.63,0.56 0.07,0.06 0.15,0.13 0.23,0.21 0.02,0.03 0.05,0.06 0.08,0.08l-0.33 0.33 -3.04 3.04zm2.73 -3.33c-0.37,-0.29 -0.8,-0.43 -1.3,-0.43 -0.59,0 -1.1,0.21 -1.52,0.63 -0.42,0.42 -0.63,0.93 -0.63,1.53 0,0.49 0.14,0.92 0.43,1.29l3.02 -3.02zm2.4 -3.4l0 7.61 -0.42 0 0 -7.61 0.42 0zm3.76 2.51c0.72,0 1.34,0.26 1.85,0.77 0.51,0.51 0.76,1.13 0.76,1.85 0,0.72 -0.25,1.34 -0.76,1.84 -0.51,0.52 -1.13,0.77 -1.85,0.77 -0.72,0 -1.34,-0.25 -1.85,-0.77 -0.51,-0.5 -0.76,-1.12 -0.76,-1.84 0,-0.72 0.25,-1.34 0.76,-1.85 0.51,-0.51 1.13,-0.77 1.85,-0.77zm0 0.46c-0.6,0 -1.11,0.21 -1.53,0.63 -0.42,0.42 -0.63,0.93 -0.63,1.53 0,0.6 0.21,1.1 0.63,1.53 0.42,0.41 0.93,0.62 1.53,0.62 0.6,0 1.1,-0.21 1.53,-0.62 0.42,-0.43 0.63,-0.93 0.63,-1.53 0,-0.6 -0.21,-1.11 -0.63,-1.53 -0.43,-0.42 -0.93,-0.63 -1.53,-0.63zm3.75 -0.03l0.43 0 0 0.65c0.08,-0.1 0.17,-0.21 0.27,-0.31 0.51,-0.51 1.13,-0.76 1.85,-0.76 0.72,0 1.34,0.25 1.85,0.76 0.51,0.51 0.76,1.13 0.76,1.85 0,0.72 -0.25,1.34 -0.76,1.84 -0.51,0.52 -1.13,0.77 -1.85,0.77 -0.72,0 -1.34,-0.25 -1.85,-0.77 -0.1,-0.1 -0.19,-0.2 -0.27,-0.31l0 2.73 -0.43 0 0 -6.45zm0.43 1.74l0 0.9c0.08,0.41 0.28,0.77 0.59,1.08 0.42,0.42 0.93,0.63 1.53,0.63 0.59,0 1.1,-0.21 1.52,-0.63 0.43,-0.43 0.64,-0.93 0.64,-1.53 0,-0.6 -0.21,-1.11 -0.64,-1.53 -0.42,-0.42 -0.93,-0.63 -1.52,-0.63 -0.6,0 -1.11,0.21 -1.53,0.63 -0.31,0.31 -0.51,0.67 -0.59,1.08zm6.81 2.05c0.4,0.37 0.88,0.55 1.43,0.55 0.6,0 1.11,-0.21 1.53,-0.63 0.06,-0.05 0.11,-0.11 0.15,-0.16l0.46 0.16c-0.09,0.11 -0.18,0.22 -0.28,0.32 -0.52,0.52 -1.13,0.77 -1.86,0.77 -0.71,0 -1.33,-0.25 -1.84,-0.77 -0.51,-0.5 -0.77,-1.12 -0.77,-1.84 0,-0.73 0.26,-1.34 0.77,-1.85 0.51,-0.51 1.13,-0.77 1.84,-0.77 0.62,0 1.16,0.19 1.63,0.56 0.07,0.06 0.15,0.13 0.23,0.21 0.02,0.03 0.05,0.06 0.08,0.08l-0.33 0.33 -3.04 3.04zm2.73 -3.33c-0.37,-0.29 -0.8,-0.43 -1.3,-0.43 -0.59,0 -1.1,0.21 -1.52,0.63 -0.42,0.42 -0.63,0.93 -0.63,1.53 0,0.49 0.14,0.92 0.43,1.29l3.02 -3.02zm1.98 -0.46l0.42 0 0 0.85c0.09,-0.13 0.2,-0.25 0.32,-0.37 0.37,-0.38 0.76,-0.57 1.15,-0.59l0 0.46c-0.27,0.02 -0.54,0.17 -0.83,0.46 -0.41,0.4 -0.62,0.88 -0.64,1.45l0 2.41 -0.42 0 0 -4.67z"/>
  <path class="fil2" d="M31.21 47.58l-9.34 0 -2.8 -34.52 9.34 0 2.8 34.52z"/>
  <path class="fil3" d="M21.87 1.55l9.34 0 -2.8 11.51 -9.34 0 2.8 -11.51z"/>
  <path class="fil4" d="M31.21 1.55l-2.8 11.51 2.8 34.52 2.8 -11.5 -2.8 -34.53z"/>
  <path class="fil3" d="M44.72 1.55l-9.34 0 -2.8 34.53 9.34 0 2.8 -34.53z"/>
  <path class="fil5" d="M35.38 47.58l9.34 0 -2.8 -11.5 -9.34 0 2.8 11.5z"/>
  <path class="fil4" d="M44.72 1.55l2.8 11.51 -2.8 34.52 -2.8 -11.5 2.8 -34.53z"/>
  <path class="fil2" d="M58.23 47.58l-9.34 0 -2.8 -34.52 9.33 0 2.81 34.52z"/>
  <path class="fil3" d="M48.89 1.55l9.34 0 -2.81 11.51 -9.33 0 2.8 -11.51z"/>
  <path class="fil4" d="M58.23 1.55l-2.81 11.51 2.81 34.52 2.8 -11.5 -2.8 -34.53z"/>
  <path class="fil2" d="M68 24.57l-9.34 0 2.8 -23.02 9.34 0 -2.8 23.02z"/>
  <path class="fil5" d="M61.46 47.58l9.34 0 -2.8 -23.01 -9.34 0 2.8 23.01z"/>
  <path class="fil4" d="M70.8 47.58l-2.8 -23.01 2.8 -23.02 2.8 23.02 -2.8 23.01z"/>
  <path class="fil2" d="M83.84 47.58l-9.34 0 -2.8 -34.52 9.34 0 2.8 34.52z"/>
  <path class="fil5" d="M74.5 1.55l9.34 0 -2.8 11.51 -9.34 0 2.8 -11.51z"/>
  <path class="fil4" d="M83.84 47.58l2.8 -11.5 -2.8 -34.53 -2.8 11.51 2.8 34.52z"/>
 </g>
</svg>
